# xmcd
#
# Track frame offsets:
#	150
#	13735
#	35530
#	58662
#	91800
#	107460
#	132735
#	149962
#	174167
#	193060
#	211580
#	233797
#	244400
#	260225
#	278702
#	292040
#
# Disc length: 4267 seconds
#
# Revision: 3
# Processed by: cddbd v1.5.1PL0 Copyright (c) Steve Scherf et al.
# Submitted via: EasyCDDAExtractor 8.0.0.2
#
DISCID=f710a910
DTITLE=Howlin' Wolf - The Masters
DYEAR=1998
DGENRE=Blues
TTITLE0=Highway 49
TTITLE1=Dust My Broom
TTITLE2=Rockin' The Blues
TTITLE3=Forty-Four
TTITLE4=Do The Do
TTITLE5=Little Red Rooster
TTITLE6=All My Life
TTITLE7=I Didn't Mean To Hurt Your Feelings
TTITLE8=Howlin' For My Darlin'
TTITLE9=Commit A Crime
TTITLE10=Wang Dang Doodle
TTITLE11=Built For Comfort
TTITLE12=Killing Floor
TTITLE13=Poor Boy
TTITLE14=Worried About You
TTITLE15=Going Down Slow
EXTD=
EXTT0=
EXTT1=
EXTT2=
EXTT3=
EXTT4=
EXTT5=
EXTT6=
EXTT7=
EXTT8=
EXTT9=
EXTT10=
EXTT11=
EXTT12=
EXTT13=
EXTT14=
EXTT15=
PLAYORDER=
